<svg width="60" height="60" viewBox="0 0 60 60" fill="none" xmlns="http://www.w3.org/2000/svg">
<path d="M6 56H54" stroke="#8B9BAB" stroke-width="3" stroke-linecap="round"/>
<path fill-rule="evenodd" clip-rule="evenodd" d="M30.4725 7.5H30.4405H30.4084H30.3765H30.3445H30.3125H30.2806H30.2486H30.2167H30.1848H30.1529H30.121H30.0891H30.0573H30.0255H29.9936H29.9618H29.93H29.8982H29.8665H29.8347H29.803H29.7713H29.7395H29.7079H29.6762H29.6445H29.6129H29.5812H29.5496H29.518H29.4864H29.4548H29.4233H29.3918H29.3602H29.3287H29.2972H29.2657H29.2343H29.2028H29.1714H29.14H29.1086H29.0772H29.0459H29.0145H28.9832H28.9519H28.9206H28.8893H28.858H28.8268H28.7955H28.7643H28.7331H28.702H28.6708H28.6397H28.6085H28.5774H28.5463H28.5153H28.4842H28.4532H28.4221H28.3911H28.3602H28.3292H28.2983H28.2673H28.2364H28.2055H28.1747H28.1438H28.113H28.0821H28.0513H28.0206H27.9898H27.9591H27.9283H27.8976H27.867H27.8363H27.8057H27.775H27.7444H27.7138H27.6833H27.6527H27.6222H27.5917H27.5612H27.5307H27.5003H27.4699H27.4395H27.4091H27.3787H27.3484H27.3181H27.2877H27.2575H27.2272H27.197H27.1667H27.1365H27.1064H27.0762H27.0461H27.016H26.9859H26.9558H26.9258H26.8957H26.8657H26.8357H26.8058H26.7758H26.7459H26.716H26.6862H26.6563H26.6265H26.5967H26.5669H26.5371H26.5074H26.4777H26.448H26.4183H26.3887H26.359H26.3294H26.2999H26.2703H26.2408H26.2113H26.1818H26.1523H26.1229H26.0935H26.0641H26.0347H26.0054H25.9761H25.9468H25.9175H25.8883H25.859H25.8298H25.8007H25.7715H25.7424H25.7133H25.6842H25.6552H25.6262H25.5972H25.5682H25.5392H25.5103H25.4814H25.4525H25.4237H25.3949H25.3661H25.3373H25.3086H25.2798H25.2511H25.2225H25.1938H25.1652H25.1366H25.1081H25.0795H25.051H25.0225H24.9941H24.9656H24.9372H24.9089H24.8805H24.8522H24.8239H24.7956H24.7674H24.7392H24.711H24.6828H24.6547H24.6266H24.5985H24.5704H24.5424H24.5144H24.4865H24.4585H24.4306H24.4027H24.3749H24.347H24.3192H24.2915H24.2637H24.236H24.2083H24.1807H24.153H24.1254H24.0979H24.0703H24.0428H24.0153H23.9879H23.9605H23.9331H23.9057H23.8784H23.8511H23.8238H23.7965H23.7693H23.7421H23.715H23.6878H23.6608H23.6337H23.6066H23.5796H23.5527H23.5257H23.4988H23.4719H23.4451H23.4182H23.3915H23.3647H23.338H23.3113H23.2846H23.258H23.2314H23.2048H23.1782H23.1517H23.1252H23.0988H23.0724H23.046H23.0196H22.9933H22.967H22.9408H22.9146H22.8884H22.8622H22.8361H22.81H22.7839H22.7579H22.7319H22.7059H22.68H22.6541H22.6282H22.6024H22.5766H22.5508H22.5251H22.4994H22.4737H22.4481H22.4225H22.3969H22.3714H22.3459H22.3204H22.295H22.2696H22.2443H22.2189H22.1936H22.1684H22.1432H22.118H22.0928H22.0677H22.0426H22.0176H21.9925H21.9676H21.9426H21.9177H21.8928H21.868H21.8432H21.8184H21.7937H21.769H21.7443H21.7197H21.6951H21.6705H21.646H21.6215H21.5971H21.5727H21.5483H21.524H21.4997H21.4754H21.4512H21.427H21.4028H21.3787H21.3546H21.3306H21.3065H21.2826H21.2586H21.2347H21.2109H21.187H21.1633H21.1395H21.1158H21.0921H21.0685H21.0449H21.0213H20.9978H20.9743H20.9509H20.9275H20.9041H20.8808H20.8575H20.8342H20.811H20.7878H20.7647H20.7416H20.7185H20.6955H20.6725H20.6496H20.6267H20.6038H20.581H20.5582H20.5354H20.5127H20.4901H20.4674H20.4448H20.4223H20.3998H20.3773H20.3549H20.3325H20.3101H20.2878H20.2656H20.2433H20.2211H20.199H20.1769H20.1548H20.1328H20.1108H20.0889H20.0669H20.0451H20.0233H20.0015H19.9797H19.958H19.9364H19.9148H19.8932H19.8717H19.8502H19.8287H19.8073H19.786H19.7646H19.7434H19.7221H19.7009H19.6798H19.6587H19.6376H19.6166H19.5956H19.5746H19.5537H19.5329H19.5121H19.4913H19.4706H19.4499H19.4293H19.4087H19.3881H19.3676H19.3471H19.3267H19.3063H19.286H19.2657H19.2454H19.2252H19.2051H19.185H19.1649H19.1449H19.1249H19.1049H19.0851H19.0652H19.0454H19.0256H19.0059H18.9863H18.9666H18.947H18.9275H18.908H18.8886H18.8692H18.8498H18.8305H18.8112H18.792H18.7729H18.7537H18.7346H18.7156H18.6966H18.6777H18.6588H18.6399H18.6211H18.6024H18.5837H18.565H18.5464H18.5278H18.5093H18.4908H18.4724H18.454H18.4356H18.4174H18.3991H18.3809H18.3628H18.3447H18.3266H18.3086H18.2906H18.2727H18.2549H18.2371H18.2193H18.2016H18.1839H18.1663H18.1487H18.1312H18.1137H18.0963H18.0789H18.0615H18.0443H18.027H18.0098H17.9927H17.9756H17.9586H17.9416H17.9246H17.9077H17.8909H17.8741H17.8574H17.8407H17.824H17.8074H17.7909H17.7744H17.7579H17.7415H17.7252H17.7089H17.6926H17.6764H17.6603H17.6442H17.6282H17.6122H17.5962H17.5803H17.5645H17.5487H17.533H17.5173H17.5016H17.4861H17.4705C17.1778 7.5 16.9931 7.72398 16.9994 7.95112C17.1121 11.9991 17.6413 18.0325 19.6485 23.0061C21.6422 27.9464 24.919 31.5 30.4725 31.5V34.5C29.9573 34.5 29.458 34.4757 28.9743 34.4286V45.5H31.9743V34.4285C31.4902 34.4757 30.9905 34.5 30.4749 34.5V31.5C36.0284 31.5 39.3052 27.9464 41.2989 23.0061C43.306 18.0325 43.8352 11.9991 43.948 7.95112C43.9543 7.72398 43.7696 7.5 43.4769 7.5H43.4613H43.4457H43.4301H43.4144H43.3987H43.3829H43.367H43.3511H43.3352H43.3192H43.3032H43.2871H43.2709H43.2547H43.2385H43.2222H43.2058H43.1894H43.173H43.1565H43.14H43.1234H43.1067H43.09H43.0733H43.0565H43.0396H43.0227H43.0058H42.9888H42.9718H42.9547H42.9375H42.9204H42.9031H42.8858H42.8685H42.8511H42.8337H42.8162H42.7987H42.7811H42.7635H42.7458H42.7281H42.7103H42.6925H42.6746H42.6567H42.6388H42.6208H42.6027H42.5846H42.5665H42.5483H42.53H42.5117H42.4934H42.475H42.4566H42.4381H42.4196H42.401H42.3824H42.3637H42.345H42.3262H42.3074H42.2886H42.2697H42.2508H42.2318H42.2127H42.1936H42.1745H42.1553H42.1361H42.1169H42.0976H42.0782H42.0588H42.0394H42.0199H42.0003H41.9807H41.9611H41.9415H41.9217H41.902H41.8822H41.8623H41.8424H41.8225H41.8025H41.7825H41.7624H41.7423H41.7221H41.7019H41.6817H41.6614H41.6411H41.6207H41.6003H41.5798H41.5593H41.5387H41.5181H41.4975H41.4768H41.4561H41.4353H41.4145H41.3936H41.3727H41.3518H41.3308H41.3098H41.2887H41.2676H41.2465H41.2253H41.204H41.1827H41.1614H41.1401H41.1186H41.0972H41.0757H41.0542H41.0326H41.011H40.9893H40.9676H40.9459H40.9241H40.9023H40.8804H40.8585H40.8366H40.8146H40.7926H40.7705H40.7484H40.7262H40.7041H40.6818H40.6596H40.6372H40.6149H40.5925H40.5701H40.5476H40.5251H40.5025H40.4799H40.4573H40.4346H40.4119H40.3892H40.3664H40.3436H40.3207H40.2978H40.2749H40.2519H40.2288H40.2058H40.1827H40.1595H40.1364H40.1132H40.0899H40.0666H40.0433H40.0199H39.9965H39.973H39.9496H39.926H39.9025H39.8789H39.8552H39.8316H39.8079H39.7841H39.7603H39.7365H39.7126H39.6887H39.6648H39.6408H39.6168H39.5928H39.5687H39.5446H39.5204H39.4962H39.472H39.4477H39.4234H39.3991H39.3747H39.3503H39.3258H39.3014H39.2768H39.2523H39.2277H39.2031H39.1784H39.1537H39.129H39.1042H39.0794H39.0546H39.0297H39.0048H38.9798H38.9548H38.9298H38.9048H38.8797H38.8546H38.8294H38.8042H38.779H38.7537H38.7284H38.7031H38.6778H38.6524H38.6269H38.6015H38.576H38.5504H38.5249H38.4993H38.4736H38.448H38.4223H38.3965H38.3708H38.345H38.3191H38.2933H38.2674H38.2414H38.2155H38.1895H38.1635H38.1374H38.1113H38.0852H38.059H38.0328H38.0066H37.9803H37.9541H37.9277H37.9014H37.875H37.8486H37.8221H37.7957H37.7691H37.7426H37.716H37.6894H37.6628H37.6361H37.6094H37.5827H37.5559H37.5291H37.5023H37.4755H37.4486H37.4217H37.3947H37.3677H37.3407H37.3137H37.2866H37.2595H37.2324H37.2052H37.1781H37.1508H37.1236H37.0963H37.069H37.0417H37.0143H36.9869H36.9595H36.932H36.9045H36.877H36.8495H36.8219H36.7943H36.7667H36.739H36.7114H36.6836H36.6559H36.6281H36.6003H36.5725H36.5446H36.5168H36.4889H36.4609H36.4329H36.405H36.3769H36.3489H36.3208H36.2927H36.2646H36.2364H36.2082H36.18H36.1518H36.1235H36.0952H36.0669H36.0385H36.0101H35.9817H35.9533H35.9248H35.8964H35.8678H35.8393H35.8107H35.7822H35.7535H35.7249H35.6962H35.6675H35.6388H35.6101H35.5813H35.5525H35.5237H35.4948H35.466H35.4371H35.4081H35.3792H35.3502H35.3212H35.2922H35.2631H35.2341H35.205H35.1758H35.1467H35.1175H35.0883H35.0591H35.0299H35.0006H34.9713H34.942H34.9126H34.8833H34.8539H34.8245H34.795H34.7656H34.7361H34.7066H34.6771H34.6475H34.6179H34.5883H34.5587H34.5291H34.4994H34.4697H34.44H34.4102H34.3805H34.3507H34.3209H34.2911H34.2612H34.2313H34.2014H34.1715H34.1416H34.1116H34.0816H34.0516H34.0216H33.9916H33.9615H33.9314H33.9013H33.8712H33.841H33.8108H33.7806H33.7504H33.7202H33.6899H33.6596H33.6293H33.599H33.5687H33.5383H33.5079H33.4775H33.4471H33.4166H33.3862H33.3557H33.3252H33.2946H33.2641H33.2335H33.2029H33.1723H33.1417H33.1111H33.0804H33.0497H33.019H32.9883H32.9576H32.9268H32.896H32.8652H32.8344H32.8036H32.7727H32.7418H32.711H32.68H32.6491H32.6182H32.5872H32.5562H32.5252H32.4942H32.4632H32.4321H32.401H32.3699H32.3388H32.3077H32.2766H32.2454H32.2142H32.183H32.1518H32.1206H32.0893H32.0581H32.0268H31.9955H31.9642H31.9329H31.9015H31.8702H31.8388H31.8074H31.776H31.7445H31.7131H31.6816H31.6501H31.6187H31.5871H31.5556H31.5241H31.4925H31.461H31.4294H31.3978H31.3661H31.3345H31.3029H31.2712H31.2395H31.2078H31.1761H31.1444H31.1127H31.0809H31.0491H31.0173H30.9856H30.9537H30.9219H30.8901H30.8582H30.8264H30.7945H30.7626H30.7307H30.6987H30.6668H30.6349H30.6029H30.5709H30.5389H30.5069H30.4749V4.5H30.5069H30.5389H30.5709H30.6029H30.6349H30.6668H30.6987H30.7307H30.7626H30.7945H30.8264H30.8582H30.8901H30.9219H30.9537H30.9856H31.0173H31.0491H31.0809H31.1127H31.1444H31.1761H31.2078H31.2395H31.2712H31.3029H31.3345H31.3661H31.3978H31.4294H31.461H31.4925H31.5241H31.5556H31.5871H31.6187H31.6501H31.6816H31.7131H31.7445H31.776H31.8074H31.8388H31.8702H31.9015H31.9329H31.9642H31.9955H32.0268H32.0581H32.0893H32.1206H32.1518H32.183H32.2142H32.2454H32.2766H32.3077H32.3388H32.3699H32.401H32.4321H32.4632H32.4942H32.5252H32.5562H32.5872H32.6182H32.6491H32.68H32.711H32.7418H32.7727H32.8036H32.8344H32.8652H32.896H32.9268H32.9576H32.9883H33.019H33.0497H33.0804H33.1111H33.1417H33.1723H33.2029H33.2335H33.2641H33.2946H33.3252H33.3557H33.3862H33.4166H33.4471H33.4775H33.5079H33.5383H33.5687H33.599H33.6293H33.6596H33.6899H33.7202H33.7504H33.7806H33.8108H33.841H33.8712H33.9013H33.9314H33.9615H33.9916H34.0216H34.0516H34.0816H34.1116H34.1416H34.1715H34.2014H34.2313H34.2612H34.2911H34.3209H34.3507H34.3805H34.4102H34.44H34.4697H34.4994H34.5291H34.5587H34.5883H34.6179H34.6475H34.6771H34.7066H34.7361H34.7656H34.795H34.8245H34.8539H34.8833H34.9126H34.942H34.9713H35.0006H35.0299H35.0591H35.0883H35.1175H35.1467H35.1758H35.205H35.2341H35.2631H35.2922H35.3212H35.3502H35.3792H35.4081H35.4371H35.466H35.4948H35.5237H35.5525H35.5813H35.6101H35.6388H35.6675H35.6962H35.7249H35.7535H35.7822H35.8107H35.8393H35.8678H35.8964H35.9248H35.9533H35.9817H36.0101H36.0385H36.0669H36.0952H36.1235H36.1518H36.18H36.2082H36.2364H36.2646H36.2927H36.3208H36.3489H36.3769H36.405H36.4329H36.4609H36.4889H36.5168H36.5446H36.5725H36.6003H36.6281H36.6559H36.6836H36.7114H36.739H36.7667H36.7943H36.8219H36.8495H36.877H36.9045H36.932H36.9595H36.9869H37.0143H37.0417H37.069H37.0963H37.1236H37.1508H37.1781H37.2052H37.2324H37.2595H37.2866H37.3137H37.3407H37.3677H37.3947H37.4217H37.4486H37.4755H37.5023H37.5291H37.5559H37.5827H37.6094H37.6361H37.6628H37.6894H37.716H37.7426H37.7691H37.7957H37.8221H37.8486H37.875H37.9014H37.9277H37.9541H37.9803H38.0066H38.0328H38.059H38.0852H38.1113H38.1374H38.1635H38.1895H38.2155H38.2414H38.2674H38.2933H38.3191H38.345H38.3708H38.3965H38.4223H38.448H38.4736H38.4993H38.5249H38.5504H38.576H38.6015H38.6269H38.6524H38.6778H38.7031H38.7284H38.7537H38.779H38.8042H38.8294H38.8546H38.8797H38.9048H38.9298H38.9548H38.9798H39.0048H39.0297H39.0546H39.0794H39.1042H39.129H39.1537H39.1784H39.2031H39.2277H39.2523H39.2768H39.3014H39.3258H39.3503H39.3747H39.3991H39.4234H39.4477H39.472H39.4962H39.5204H39.5446H39.5687H39.5928H39.6168H39.6408H39.6648H39.6887H39.7126H39.7365H39.7603H39.7841H39.8079H39.8316H39.8552H39.8789H39.9025H39.926H39.9496H39.973H39.9965H40.0199H40.0433H40.0666H40.0899H40.1132H40.1364H40.1595H40.1827H40.2058H40.2288H40.2519H40.2749H40.2978H40.3207H40.3436H40.3664H40.3892H40.4119H40.4346H40.4573H40.4799H40.5025H40.5251H40.5476H40.5701H40.5925H40.6149H40.6372H40.6596H40.6818H40.7041H40.7262H40.7484H40.7705H40.7926H40.8146H40.8366H40.8585H40.8804H40.9023H40.9241H40.9459H40.9676H40.9893H41.011H41.0326H41.0542H41.0757H41.0972H41.1186H41.1401H41.1614H41.1827H41.204H41.2253H41.2465H41.2676H41.2887H41.3098H41.3308H41.3518H41.3727H41.3936H41.4145H41.4353H41.4561H41.4768H41.4975H41.5181H41.5387H41.5593H41.5798H41.6003H41.6207H41.6411H41.6614H41.6817H41.7019H41.7221H41.7423H41.7624H41.7825H41.8025H41.8225H41.8424H41.8623H41.8822H41.902H41.9217H41.9415H41.9611H41.9807H42.0003H42.0199H42.0394H42.0588H42.0782H42.0976H42.1169H42.1361H42.1553H42.1745H42.1936H42.2127H42.2318H42.2508H42.2697H42.2886H42.3074H42.3262H42.345H42.3637H42.3824H42.401H42.4196H42.4381H42.4566H42.475H42.4934H42.5117H42.53H42.5483H42.5665H42.5846H42.6027H42.6208H42.6388H42.6567H42.6746H42.6925H42.7103H42.7281H42.7458H42.7635H42.7811H42.7987H42.8162H42.8337H42.8511H42.8685H42.8858H42.9031H42.9204H42.9375H42.9547H42.9718H42.9888H43.0058H43.0227H43.0396H43.0565H43.0733H43.09H43.1067H43.1234H43.14H43.1565H43.173H43.1894H43.2058H43.2222H43.2385H43.2547H43.2709H43.2871H43.3032H43.3192H43.3352H43.3511H43.367H43.3829H43.3987H43.4144H43.4301H43.4457H43.4613H43.4769C45.3933 4.5 47.002 6.05347 46.9468 8.03462C46.9182 9.06307 46.8634 10.2351 46.7635 11.5H46.7679H46.7735H46.7791H46.7847H46.7903H46.7958H46.8014H46.807H46.8125H46.8181H46.8236H46.8291H46.8347H46.8402H46.8457H46.8512H46.8567H46.8622H46.8677H46.8732H46.8787H46.8841H46.8896H46.8951H46.9005H46.906H46.9114H46.9168H46.9223H46.9277H46.9331H46.9385H46.9439H46.9493H46.9547H46.9601H46.9655H46.9709H46.9762H46.9816H46.987H46.9923H46.9977H47.003H47.0083H47.0137H47.019H47.0243H47.0296H47.0349H47.0402H47.0455H47.0508H47.0561H47.0613H47.0666H47.0719H47.0771H47.0824H47.0876H47.0928H47.0981H47.1033H47.1085H47.1137H47.1189H47.1241H47.1293H47.1345H47.1397H47.1449H47.1501H47.1552H47.1604H47.1656H47.1707H47.1758H47.181H47.1861H47.1912H47.1964H47.2015H47.2066H47.2117H47.2168H47.2219H47.227H47.232H47.2371H47.2422H47.2472H47.2523H47.2573H47.2624H47.2674H47.2724H47.2775H47.2825H47.2875H47.2925H47.2975H47.3025H47.3075H47.3125H47.3175H47.3224H47.3274H47.3324H47.3373H47.3423H47.3472H47.3522H47.3571H47.362H47.367H47.3719H47.3768H47.3817H47.3866H47.3915H47.3964H47.4013H47.4061H47.411H47.4159H47.4207H47.4256H47.4304H47.4353H47.4401H47.4449H47.4498H47.4546H47.4594H47.4642H47.469H47.4738H47.4786H47.4834H47.4882H47.4929H47.4977H47.5025H47.5072H47.512H47.5167H47.5215H47.5262H47.5309H47.5357H47.5404H47.5451H47.5498H47.5545H47.5592H47.5639H47.5686H47.5733H47.5779H47.5826H47.5873H47.5919H47.5966H47.6012H47.6059H47.6105H47.6151H47.6197H47.6244H47.629H47.6336H47.6382H47.6428H47.6474H47.652H47.6565H47.6611H47.6657H47.6703H47.6748H47.6794H47.6839H47.6885H47.693H47.6975H47.702H47.7066H47.7111H47.7156H47.7201H47.7246H47.7291H47.7336H47.7381H47.7425H47.747H47.7515H47.7559H47.7604H47.7648H47.7693H47.7737H47.7782H47.7826H47.787H47.7914H47.7958H47.8002H47.8046H47.809H47.8134H47.8178H47.8222H47.8266H47.8309H47.8353H47.8397H47.844H47.8484H47.8527H47.8571H47.8614H47.8657H47.87H47.8744H47.8787H47.883H47.8873H47.8916H47.8959H47.9001H47.9044H47.9087H47.913H47.9172H47.9215H47.9257H47.93H47.9342H47.9385H47.9427H47.9469H47.9512H47.9554H47.9596H47.9638H47.968H47.9722H47.9764H47.9806H47.9847H47.9889H47.9931H47.9973H48.0014H48.0056H48.0097H48.0139H48.018H48.0221H48.0263H48.0304H48.0345H48.0386H48.0427H48.0468H48.0509H48.055H48.0591H48.0632H48.0673H48.0713H48.0754H48.0795H48.0835H48.0876H48.0916H48.0957H48.0997H48.1037H48.1078H48.1118H48.1158H48.1198H48.1238H48.1278H48.1318H48.1358H48.1398H48.1438H48.1478H48.1517H48.1557H48.1597H48.1636H48.1676H48.1715H48.1755H48.1794H48.1833H48.1873H48.1912H48.1951H48.199H48.2029H48.2068H48.2107H48.2146H48.2185H48.2224H48.2262H48.2301H48.234H48.2379H48.2417H48.2456H48.2494H48.2533H48.2571H48.2609H48.2647H48.2686H48.2724H48.2762H48.28H48.2838H48.2876H48.2914H48.2952H48.299H48.3028H48.3065H48.3103H48.3141H48.3178H48.3216H48.3253H48.3291H48.3328H48.3366H48.3403H48.344H48.3477H48.3514H48.3552H48.3589H48.3626H48.3663H48.37H48.3736H48.3773H48.381H48.3847H48.3883H48.392H48.3957H48.3993H48.403H48.4066H48.4103H48.4139H48.4175H48.4212H48.4248H48.4284H48.432H48.4356H48.4392H48.4428H48.4464H48.45H48.4536H48.4571H48.4607H48.4643H48.4679H48.4714H48.475H48.4785H48.4821H48.4856H48.4892H48.4927H48.4962H48.4997C50.3722 11.5 52.1288 13.0591 51.8669 15.1776C51.4396 18.6333 49.6702 23.9873 43.0606 26.3417C41.3058 29.6825 38.7232 32.5251 34.9743 33.793V45.5H43.4743C44.5789 45.5 45.4743 46.3954 45.4743 47.5V48.5H43.4743H42.4743H34.9743H33.4743H27.4743H25.9743H18.4743H17.4743H15.4743V47.5C15.4743 46.3954 16.3697 45.5 17.4743 45.5H25.9743V33.7935C22.2648 32.5392 19.6971 29.7434 17.9433 26.4486C17.7963 26.443 17.6477 26.4156 17.5016 26.3643C10.8396 24.0217 9.06016 18.6444 8.63151 15.1776C8.36957 13.0591 10.1262 11.5 11.9987 11.5H12.0022H12.0057H12.0093H12.0128H12.0163H12.0199H12.0234H12.027H12.0306H12.0341H12.0377H12.0413H12.0448H12.0484H12.052H12.0556H12.0592H12.0628H12.0664H12.07H12.0736H12.0773H12.0809H12.0845H12.0882H12.0918H12.0954H12.0991H12.1027H12.1064H12.1101H12.1137H12.1174H12.1211H12.1248H12.1285H12.1321H12.1358H12.1395H12.1433H12.147H12.1507H12.1544H12.1581H12.1619H12.1656H12.1693H12.1731H12.1768H12.1806H12.1843H12.1881H12.1919H12.1957H12.1994H12.2032H12.207H12.2108H12.2146H12.2184H12.2222H12.226H12.2298H12.2337H12.2375H12.2413H12.2452H12.249H12.2529H12.2567H12.2606H12.2644H12.2683H12.2722H12.276H12.2799H12.2838H12.2877H12.2916H12.2955H12.2994H12.3033H12.3072H12.3112H12.3151H12.319H12.323H12.3269H12.3308H12.3348H12.3387H12.3427H12.3467H12.3506H12.3546H12.3586H12.3626H12.3666H12.3706H12.3746H12.3786H12.3826H12.3866H12.3906H12.3947H12.3987H12.4027H12.4068H12.4108H12.4149H12.4189H12.423H12.4271H12.4311H12.4352H12.4393H12.4434H12.4475H12.4516H12.4557H12.4598H12.4639H12.468H12.4721H12.4763H12.4804H12.4845H12.4887H12.4928H12.497H12.5012H12.5053H12.5095H12.5137H12.5179H12.522H12.5262H12.5304H12.5346H12.5388H12.543H12.5473H12.5515H12.5557H12.5599H12.5642H12.5684H12.5727H12.5769H12.5812H12.5854H12.5897H12.594H12.5983H12.6026H12.6068H12.6111H12.6154H12.6197H12.6241H12.6284H12.6327H12.637H12.6414H12.6457H12.65H12.6544H12.6587H12.6631H12.6675H12.6718H12.6762H12.6806H12.685H12.6894H12.6938H12.6982H12.7026H12.707H12.7114H12.7158H12.7203H12.7247H12.7291H12.7336H12.738H12.7425H12.7469H12.7514H12.7559H12.7604H12.7648H12.7693H12.7738H12.7783H12.7828H12.7873H12.7918H12.7964H12.8009H12.8054H12.81H12.8145H12.819H12.8236H12.8282H12.8327H12.8373H12.8419H12.8464H12.851H12.8556H12.8602H12.8648H12.8694H12.874H12.8787H12.8833H12.8879H12.8926H12.8972H12.9018H12.9065H12.9112H12.9158H12.9205H12.9252H12.9298H12.9345H12.9392H12.9439H12.9486H12.9533H12.958H12.9627H12.9675H12.9722H12.9769H12.9817H12.9864H12.9912H12.9959H13.0007H13.0055H13.0102H13.015H13.0198H13.0246H13.0294H13.0342H13.039H13.0438H13.0486H13.0535H13.0583H13.0631H13.068H13.0728H13.0777H13.0825H13.0874H13.0923H13.0972H13.102H13.1069H13.1118H13.1167H13.1216H13.1265H13.1315H13.1364H13.1413H13.1462H13.1512H13.1561H13.1611H13.166H13.171H13.176H13.1809H13.1859H13.1909H13.1959H13.2009H13.2059H13.2109H13.2159H13.2209H13.226H13.231H13.236H13.2411H13.2461H13.2512H13.2562H13.2613H13.2664H13.2715H13.2765H13.2816H13.2867H13.2918H13.2969H13.3021H13.3072H13.3123H13.3174H13.3226H13.3277H13.3329H13.338H13.3432H13.3483H13.3535H13.3587H13.3639H13.3691H13.3743H13.3795H13.3847H13.3899H13.3951H13.4003H13.4056H13.4108H13.416H13.4213H13.4265H13.4318H13.4371H13.4424H13.4476H13.4529H13.4582H13.4635H13.4688H13.4741H13.4794H13.4848H13.4901H13.4954H13.5008H13.5061H13.5114H13.5168H13.5222H13.5275H13.5329H13.5383H13.5437H13.5491H13.5545H13.5599H13.5653H13.5707H13.5761H13.5816H13.587H13.5924H13.5979H13.6033H13.6088H13.6143H13.6197H13.6252H13.6307H13.6362H13.6417H13.6472H13.6527H13.6582H13.6637H13.6693H13.6748H13.6803H13.6859H13.6914H13.697H13.7026H13.7081H13.7137H13.7193H13.7249H13.7305H13.7361H13.7417H13.7473H13.7529H13.7586H13.7642H13.7698H13.7755H13.7811H13.7868H13.7924H13.7981H13.8038H13.8095H13.8152H13.8209H13.8266H13.8323H13.838H13.8437H13.8494H13.8552H13.8609H13.8666H13.8724H13.8782H13.8839H13.8897H13.8955H13.9012H13.907H13.9128H13.9186H13.9244H13.9303H13.9361H13.9419H13.9477H13.9536H13.9594H13.9653H13.9711H13.977H13.9829H13.9887H13.9946H14.0005H14.0064H14.0123H14.0182H14.0242H14.0301H14.036H14.0419H14.0479H14.0538H14.0598H14.0657H14.0717H14.0777H14.0837H14.0897H14.0956H14.1016H14.1077H14.1137H14.1197H14.1257H14.1317H14.1378H14.1438H14.1499H14.1559H14.162H14.1681H14.1741H14.1802H14.1839C14.0839 10.2351 14.0292 9.06307 14.0006 8.03462C13.9454 6.05347 15.5541 4.5 17.4705 4.5H17.4861H17.5016H17.5173H17.533H17.5487H17.5645H17.5803H17.5962H17.6122H17.6282H17.6442H17.6603H17.6764H17.6926H17.7089H17.7252H17.7415H17.7579H17.7744H17.7909H17.8074H17.824H17.8407H17.8574H17.8741H17.8909H17.9077H17.9246H17.9416H17.9586H17.9756H17.9927H18.0098H18.027H18.0443H18.0615H18.0789H18.0963H18.1137H18.1312H18.1487H18.1663H18.1839H18.2016H18.2193H18.2371H18.2549H18.2727H18.2906H18.3086H18.3266H18.3447H18.3628H18.3809H18.3991H18.4174H18.4356H18.454H18.4724H18.4908H18.5093H18.5278H18.5464H18.565H18.5837H18.6024H18.6211H18.6399H18.6588H18.6777H18.6966H18.7156H18.7346H18.7537H18.7729H18.792H18.8112H18.8305H18.8498H18.8692H18.8886H18.908H18.9275H18.947H18.9666H18.9863H19.0059H19.0256H19.0454H19.0652H19.0851H19.1049H19.1249H19.1449H19.1649H19.185H19.2051H19.2252H19.2454H19.2657H19.286H19.3063H19.3267H19.3471H19.3676H19.3881H19.4087H19.4293H19.4499H19.4706H19.4913H19.5121H19.5329H19.5537H19.5746H19.5956H19.6166H19.6376H19.6587H19.6798H19.7009H19.7221H19.7434H19.7646H19.786H19.8073H19.8287H19.8502H19.8717H19.8932H19.9148H19.9364H19.958H19.9797H20.0015H20.0233H20.0451H20.0669H20.0889H20.1108H20.1328H20.1548H20.1769H20.199H20.2211H20.2433H20.2656H20.2878H20.3101H20.3325H20.3549H20.3773H20.3998H20.4223H20.4448H20.4674H20.4901H20.5127H20.5354H20.5582H20.581H20.6038H20.6267H20.6496H20.6725H20.6955H20.7185H20.7416H20.7647H20.7878H20.811H20.8342H20.8575H20.8808H20.9041H20.9275H20.9509H20.9743H20.9978H21.0213H21.0449H21.0685H21.0921H21.1158H21.1395H21.1633H21.187H21.2109H21.2347H21.2586H21.2826H21.3065H21.3306H21.3546H21.3787H21.4028H21.427H21.4512H21.4754H21.4997H21.524H21.5483H21.5727H21.5971H21.6215H21.646H21.6705H21.6951H21.7197H21.7443H21.769H21.7937H21.8184H21.8432H21.868H21.8928H21.9177H21.9426H21.9676H21.9925H22.0176H22.0426H22.0677H22.0928H22.118H22.1432H22.1684H22.1936H22.2189H22.2443H22.2696H22.295H22.3204H22.3459H22.3714H22.3969H22.4225H22.4481H22.4737H22.4994H22.5251H22.5508H22.5766H22.6024H22.6282H22.6541H22.68H22.7059H22.7319H22.7579H22.7839H22.81H22.8361H22.8622H22.8884H22.9146H22.9408H22.967H22.9933H23.0196H23.046H23.0724H23.0988H23.1252H23.1517H23.1782H23.2048H23.2314H23.258H23.2846H23.3113H23.338H23.3647H23.3915H23.4182H23.4451H23.4719H23.4988H23.5257H23.5527H23.5796H23.6066H23.6337H23.6608H23.6878H23.715H23.7421H23.7693H23.7965H23.8238H23.8511H23.8784H23.9057H23.9331H23.9605H23.9879H24.0153H24.0428H24.0703H24.0979H24.1254H24.153H24.1807H24.2083H24.236H24.2637H24.2915H24.3192H24.347H24.3749H24.4027H24.4306H24.4585H24.4865H24.5144H24.5424H24.5704H24.5985H24.6266H24.6547H24.6828H24.711H24.7392H24.7674H24.7956H24.8239H24.8522H24.8805H24.9089H24.9372H24.9656H24.9941H25.0225H25.051H25.0795H25.1081H25.1366H25.1652H25.1938H25.2225H25.2511H25.2798H25.3086H25.3373H25.3661H25.3949H25.4237H25.4525H25.4814H25.5103H25.5392H25.5682H25.5972H25.6262H25.6552H25.6842H25.7133H25.7424H25.7715H25.8007H25.8298H25.859H25.8883H25.9175H25.9468H25.9761H26.0054H26.0347H26.0641H26.0935H26.1229H26.1523H26.1818H26.2113H26.2408H26.2703H26.2999H26.3294H26.359H26.3887H26.4183H26.448H26.4777H26.5074H26.5371H26.5669H26.5967H26.6265H26.6563H26.6862H26.716H26.7459H26.7758H26.8058H26.8357H26.8657H26.8957H26.9258H26.9558H26.9859H27.016H27.0461H27.0762H27.1064H27.1365H27.1667H27.197H27.2272H27.2575H27.2877H27.3181H27.3484H27.3787H27.4091H27.4395H27.4699H27.5003H27.5307H27.5612H27.5917H27.6222H27.6527H27.6833H27.7138H27.7444H27.775H27.8057H27.8363H27.867H27.8976H27.9283H27.9591H27.9898H28.0206H28.0513H28.0821H28.113H28.1438H28.1747H28.2055H28.2364H28.2673H28.2983H28.3292H28.3602H28.3911H28.4221H28.4532H28.4842H28.5153H28.5463H28.5774H28.6085H28.6397H28.6708H28.702H28.7331H28.7643H28.7955H28.8268H28.858H28.8893H28.9206H28.9519H28.9832H29.0145H29.0459H29.0772H29.1086H29.14H29.1714H29.2028H29.2343H29.2657H29.2972H29.3287H29.3602H29.3918H29.4233H29.4548H29.4864H29.518H29.5496H29.5812H29.6129H29.6445H29.6762H29.7079H29.7395H29.7713H29.803H29.8347H29.8665H29.8982H29.93H29.9618H29.9936H30.0255H30.0573H30.0891H30.121H30.1529H30.1848H30.2167H30.2486H30.2806H30.3125H30.3445H30.3765H30.4084H30.4405H30.4725V7.5ZM14.4956 14.5H14.4928H14.4864H14.48H14.4736H14.4672H14.4608H14.4544H14.448H14.4417H14.4353H14.4289H14.4226H14.4163H14.4099H14.4036H14.3973H14.391H14.3847H14.3784H14.3721H14.3658H14.3595H14.3532H14.347H14.3407H14.3344H14.3282H14.322H14.3157H14.3095H14.3033H14.2971H14.2909H14.2846H14.2785H14.2723H14.2661H14.2599H14.2537H14.2476H14.2414H14.2353H14.2291H14.223H14.2169H14.2107H14.2046H14.1985H14.1924H14.1863H14.1802H14.1741H14.1681H14.162H14.1559H14.1499H14.1438H14.1378H14.1317H14.1257H14.1197H14.1137H14.1077H14.1016H14.0956H14.0897H14.0837H14.0777H14.0717H14.0657H14.0598H14.0538H14.0479H14.0419H14.036H14.0301H14.0242H14.0182H14.0123H14.0064H14.0005H13.9946H13.9887H13.9829H13.977H13.9711H13.9653H13.9594H13.9536H13.9477H13.9419H13.9361H13.9303H13.9244H13.9186H13.9128H13.907H13.9012H13.8955H13.8897H13.8839H13.8782H13.8724H13.8666H13.8609H13.8552H13.8494H13.8437H13.838H13.8323H13.8266H13.8209H13.8152H13.8095H13.8038H13.7981H13.7924H13.7868H13.7811H13.7755H13.7698H13.7642H13.7586H13.7529H13.7473H13.7417H13.7361H13.7305H13.7249H13.7193H13.7137H13.7081H13.7026H13.697H13.6914H13.6859H13.6803H13.6748H13.6693H13.6637H13.6582H13.6527H13.6472H13.6417H13.6362H13.6307H13.6252H13.6197H13.6143H13.6088H13.6033H13.5979H13.5924H13.587H13.5816H13.5761H13.5707H13.5653H13.5599H13.5545H13.5491H13.5437H13.5383H13.5329H13.5275H13.5222H13.5168H13.5114H13.5061H13.5008H13.4954H13.4901H13.4848H13.4794H13.4741H13.4688H13.4635H13.4582H13.4529H13.4476H13.4424H13.4371H13.4318H13.4265H13.4213H13.416H13.4108H13.4056H13.4003H13.3951H13.3899H13.3847H13.3795H13.3743H13.3691H13.3639H13.3587H13.3535H13.3483H13.3432H13.338H13.3329H13.3277H13.3226H13.3174H13.3123H13.3072H13.3021H13.2969H13.2918H13.2867H13.2816H13.2765H13.2715H13.2664H13.2613H13.2562H13.2512H13.2461H13.2411H13.236H13.231H13.226H13.2209H13.2159H13.2109H13.2059H13.2009H13.1959H13.1909H13.1859H13.1809H13.176H13.171H13.166H13.1611H13.1561H13.1512H13.1462H13.1413H13.1364H13.1315H13.1265H13.1216H13.1167H13.1118H13.1069H13.102H13.0972H13.0923H13.0874H13.0825H13.0777H13.0728H13.068H13.0631H13.0583H13.0535H13.0486H13.0438H13.039H13.0342H13.0294H13.0246H13.0198H13.015H13.0102H13.0055H13.0007H12.9959H12.9912H12.9864H12.9817H12.9769H12.9722H12.9675H12.9627H12.958H12.9533H12.9486H12.9439H12.9392H12.9345H12.9298H12.9252H12.9205H12.9158H12.9112H12.9065H12.9018H12.8972H12.8926H12.8879H12.8833H12.8787H12.874H12.8694H12.8648H12.8602H12.8556H12.851H12.8464H12.8419H12.8373H12.8327H12.8282H12.8236H12.819H12.8145H12.81H12.8054H12.8009H12.7964H12.7918H12.7873H12.7828H12.7783H12.7738H12.7693H12.7648H12.7604H12.7559H12.7514H12.7469H12.7425H12.738H12.7336H12.7291H12.7247H12.7203H12.7158H12.7114H12.707H12.7026H12.6982H12.6938H12.6894H12.685H12.6806H12.6762H12.6718H12.6675H12.6631H12.6587H12.6544H12.65H12.6457H12.6414H12.637H12.6327H12.6284H12.6241H12.6197H12.6154H12.6111H12.6068H12.6026H12.5983H12.594H12.5897H12.5854H12.5812H12.5769H12.5727H12.5684H12.5642H12.5599H12.5557H12.5515H12.5473H12.543H12.5388H12.5346H12.5304H12.5262H12.522H12.5179H12.5137H12.5095H12.5053H12.5012H12.497H12.4928H12.4887H12.4845H12.4804H12.4763H12.4721H12.468H12.4639H12.4598H12.4557H12.4516H12.4475H12.4434H12.4393H12.4352H12.4311H12.4271H12.423H12.4189H12.4149H12.4108H12.4068H12.4027H12.3987H12.3947H12.3906H12.3866H12.3826H12.3786H12.3746H12.3706H12.3666H12.3626H12.3586H12.3546H12.3506H12.3467H12.3427H12.3387H12.3348H12.3308H12.3269H12.323H12.319H12.3151H12.3112H12.3072H12.3033H12.2994H12.2955H12.2916H12.2877H12.2838H12.2799H12.276H12.2722H12.2683H12.2644H12.2606H12.2567H12.2529H12.249H12.2452H12.2413H12.2375H12.2337H12.2298H12.226H12.2222H12.2184H12.2146H12.2108H12.207H12.2032H12.1994H12.1957H12.1919H12.1881H12.1843H12.1806H12.1768H12.1731H12.1693H12.1656H12.1619H12.1581H12.1544H12.1507H12.147H12.1433H12.1395H12.1358H12.1321H12.1285H12.1248H12.1211H12.1174H12.1137H12.1101H12.1064H12.1027H12.0991H12.0954H12.0918H12.0882H12.0845H12.0809H12.0773H12.0736H12.07H12.0664H12.0628H12.0592H12.0556H12.052H12.0484H12.0448H12.0413H12.0377H12.0341H12.0306H12.027H12.0234H12.0199H12.0163H12.0128H12.0093H12.0057H12.0022H11.9987C11.8531 14.5 11.7395 14.5591 11.6741 14.627C11.6167 14.6864 11.6006 14.7426 11.6088 14.8094C11.9056 17.2096 12.9149 20.431 16.2599 22.482C15.3775 19.853 14.8316 17.0806 14.4956 14.5ZM44.812 22.1033C45.6217 19.5879 46.1319 16.957 46.4518 14.5H46.4565H46.4624H46.4683H46.4743H46.4802H46.4861H46.492H46.4979H46.5038H46.5097H46.5155H46.5214H46.5273H46.5331H46.539H46.5448H46.5507H46.5565H46.5623H46.5682H46.574H46.5798H46.5856H46.5914H46.5972H46.6029H46.6087H46.6145H46.6203H46.626H46.6318H46.6375H46.6432H46.649H46.6547H46.6604H46.6661H46.6719H46.6776H46.6832H46.6889H46.6946H46.7003H46.706H46.7116H46.7173H46.7229H46.7286H46.7342H46.7399H46.7455H46.7511H46.7567H46.7623H46.7679H46.7735H46.7791H46.7847H46.7903H46.7958H46.8014H46.807H46.8125H46.8181H46.8236H46.8291H46.8347H46.8402H46.8457H46.8512H46.8567H46.8622H46.8677H46.8732H46.8787H46.8841H46.8896H46.8951H46.9005H46.906H46.9114H46.9168H46.9223H46.9277H46.9331H46.9385H46.9439H46.9493H46.9547H46.9601H46.9655H46.9709H46.9762H46.9816H46.987H46.9923H46.9977H47.003H47.0083H47.0137H47.019H47.0243H47.0296H47.0349H47.0402H47.0455H47.0508H47.0561H47.0613H47.0666H47.0719H47.0771H47.0824H47.0876H47.0928H47.0981H47.1033H47.1085H47.1137H47.1189H47.1241H47.1293H47.1345H47.1397H47.1449H47.1501H47.1552H47.1604H47.1656H47.1707H47.1758H47.181H47.1861H47.1912H47.1964H47.2015H47.2066H47.2117H47.2168H47.2219H47.227H47.232H47.2371H47.2422H47.2472H47.2523H47.2573H47.2624H47.2674H47.2724H47.2775H47.2825H47.2875H47.2925H47.2975H47.3025H47.3075H47.3125H47.3175H47.3224H47.3274H47.3324H47.3373H47.3423H47.3472H47.3522H47.3571H47.362H47.367H47.3719H47.3768H47.3817H47.3866H47.3915H47.3964H47.4013H47.4061H47.411H47.4159H47.4207H47.4256H47.4304H47.4353H47.4401H47.4449H47.4498H47.4546H47.4594H47.4642H47.469H47.4738H47.4786H47.4834H47.4882H47.4929H47.4977H47.5025H47.5072H47.512H47.5167H47.5215H47.5262H47.5309H47.5357H47.5404H47.5451H47.5498H47.5545H47.5592H47.5639H47.5686H47.5733H47.5779H47.5826H47.5873H47.5919H47.5966H47.6012H47.6059H47.6105H47.6151H47.6197H47.6244H47.629H47.6336H47.6382H47.6428H47.6474H47.652H47.6565H47.6611H47.6657H47.6703H47.6748H47.6794H47.6839H47.6885H47.693H47.6975H47.702H47.7066H47.7111H47.7156H47.7201H47.7246H47.7291H47.7336H47.7381H47.7425H47.747H47.7515H47.7559H47.7604H47.7648H47.7693H47.7737H47.7782H47.7826H47.787H47.7914H47.7958H47.8002H47.8046H47.809H47.8134H47.8178H47.8222H47.8266H47.8309H47.8353H47.8397H47.844H47.8484H47.8527H47.8571H47.8614H47.8657H47.87H47.8744H47.8787H47.883H47.8873H47.8916H47.8959H47.9001H47.9044H47.9087H47.913H47.9172H47.9215H47.9257H47.93H47.9342H47.9385H47.9427H47.9469H47.9512H47.9554H47.9596H47.9638H47.968H47.9722H47.9764H47.9806H47.9847H47.9889H47.9931H47.9973H48.0014H48.0056H48.0097H48.0139H48.018H48.0221H48.0263H48.0304H48.0345H48.0386H48.0427H48.0468H48.0509H48.055H48.0591H48.0632H48.0673H48.0713H48.0754H48.0795H48.0835H48.0876H48.0916H48.0957H48.0997H48.1037H48.1078H48.1118H48.1158H48.1198H48.1238H48.1278H48.1318H48.1358H48.1398H48.1438H48.1478H48.1517H48.1557H48.1597H48.1636H48.1676H48.1715H48.1755H48.1794H48.1833H48.1873H48.1912H48.1951H48.199H48.2029H48.2068H48.2107H48.2146H48.2185H48.2224H48.2262H48.2301H48.234H48.2379H48.2417H48.2456H48.2494H48.2533H48.2571H48.2609H48.2647H48.2686H48.2724H48.2762H48.28H48.2838H48.2876H48.2914H48.2952H48.299H48.3028H48.3065H48.3103H48.3141H48.3178H48.3216H48.3253H48.3291H48.3328H48.3366H48.3403H48.344H48.3477H48.3514H48.3552H48.3589H48.3626H48.3663H48.37H48.3736H48.3773H48.381H48.3847H48.3883H48.392H48.3957H48.3993H48.403H48.4066H48.4103H48.4139H48.4175H48.4212H48.4248H48.4284H48.432H48.4356H48.4392H48.4428H48.4464H48.45H48.4536H48.4571H48.4607H48.4643H48.4679H48.4714H48.475H48.4785H48.4821H48.4856H48.4892H48.4927H48.4962H48.4997C48.6453 14.5 48.7589 14.5591 48.8244 14.627C48.8817 14.6864 48.8978 14.7426 48.8896 14.8094C48.6105 17.0665 47.7013 20.05 44.812 22.1033Z" fill="#8B9BAB"/>
<path fill-rule="evenodd" clip-rule="evenodd" d="M30.49 22.8132L25.8609 25.2468L26.745 20.0923L23 16.4418L28.1755 15.6898L30.49 11L32.8045 15.6898L37.98 16.4418L34.235 20.0923L35.1191 25.2468L30.49 22.8132Z" stroke="#376FFF" stroke-width="3" stroke-linejoin="round"/>
</svg>
