<svg width="114" height="32" viewBox="0 0 114 32" fill="none" xmlns="http://www.w3.org/2000/svg">
<path fill-rule="evenodd" clip-rule="evenodd" d="M39.1771 32H44.7771L22.4 0L14.2629 11.6322L10.0571 4.90378L7.15429 9.05488L19.2 27.8945L8.50286 27.8489L11.5429 23.4697L8.89143 19.3186L2.92571 27.8261H2.90286L0 32H5.6H5.62286H26.9943L16.8914 15.8289L22.4 7.91447L39.1771 32Z" fill="#242A56"/>
<path d="M50.0517 14.1714H53.3669C56.3109 14.1714 58.0389 12.3154 58.0389 9.64023C58.0389 6.95223 56.1957 5.08343 53.3285 5.08343H50.0517V14.1714ZM52.4069 12.0082V7.24663H53.3797C54.5701 7.24663 55.4917 8.28343 55.4917 9.64023C55.4917 10.9458 54.5829 12.0082 53.2005 12.0082H52.4069Z" fill="#242A56"/>
<path d="M61.7129 14.1714H64.2217V5.08343H61.7129V14.1714Z" fill="#242A56"/>
<path d="M72.6386 14.2866C74.0466 14.2866 75.4674 13.8002 76.2866 13.1858V8.96183H72.4466V10.9202H73.9954V11.765C73.509 11.9826 73.1122 12.0594 72.6386 12.0594C71.2306 12.0594 70.437 10.9458 70.437 9.64023C70.437 8.09143 71.4226 7.23383 72.5362 7.23383C73.4834 7.23383 74.149 7.68183 74.5586 8.07863L76.2866 6.63223C75.365 5.53143 73.8674 4.94263 72.5362 4.94263C69.5794 4.94263 67.8898 7.01623 67.8898 9.64023C67.8898 12.6354 70.0018 14.2866 72.6386 14.2866Z" fill="#242A56"/>
<path d="M80.0829 14.1714H82.5917V5.08343H80.0829V14.1714Z" fill="#242A56"/>
<path d="M88.3717 14.1714H90.8678V7.24663H93.1334V5.08343H86.1062V7.24663H88.3717V14.1714Z" fill="#242A56"/>
<path d="M94.9602 14.1714H97.5074L97.9682 12.6994H100.887L101.347 14.1714H103.882L100.592 5.08343H98.2626L94.9602 14.1714ZM98.5954 10.6642L99.4146 8.04023H99.4402L100.259 10.6642H98.5954Z" fill="#242A56"/>
<path d="M107.099 14.1714H113.154V12.0082H109.608V5.08343H107.099V14.1714Z" fill="#242A56"/>
<path d="M49.3477 26.9714H51.8949L52.3557 25.4994H55.2741L55.7349 26.9714H58.2693L54.9797 17.8834H52.6501L49.3477 26.9714ZM52.9829 23.4642L53.8021 20.8402H53.8277L54.6469 23.4642H52.9829Z" fill="#242A56"/>
<path d="M65.4161 27.0866C66.8241 27.0866 68.2449 26.6002 69.0641 25.9858V21.7618H65.2241V23.7202H66.7729V24.565C66.2865 24.7826 65.8897 24.8594 65.4161 24.8594C64.0081 24.8594 63.2145 23.7458 63.2145 22.4402C63.2145 20.8914 64.2001 20.0338 65.3137 20.0338C66.2609 20.0338 66.9265 20.4818 67.3361 20.8786L69.0641 19.4322C68.1425 18.3314 66.6449 17.7426 65.3137 17.7426C62.3569 17.7426 60.6673 19.8162 60.6673 22.4402C60.6673 25.4354 62.7793 27.0866 65.4161 27.0866Z" fill="#242A56"/>
<path d="M72.7964 26.9714H79.1068V24.8082H75.1516V23.4898H78.0316V21.4162H75.1516V20.0466H78.838V17.8834H72.7964V26.9714Z" fill="#242A56"/>
<path d="M82.7192 26.9714H85.1V21.9922H85.1256L88.2744 26.9714H90.668V17.8834H88.2744V23.0162L88.2488 23.029L85.036 17.8834H82.7192V26.9714Z" fill="#242A56"/>
<path d="M99.0336 27.0994C100.646 27.0994 101.952 26.3314 102.733 25.3714L100.954 23.8354C100.467 24.4242 99.7888 24.757 99.0336 24.757C97.664 24.757 96.8448 23.6818 96.8448 22.4402C96.8448 20.9042 97.9072 20.085 99.0336 20.085C99.8784 20.085 100.57 20.597 100.954 21.0322L102.733 19.509C101.709 18.2674 100.275 17.7426 99.0336 17.7426C96 17.7426 94.2847 19.829 94.2847 22.4402C94.2847 25.4738 96.3456 27.0994 99.0336 27.0994Z" fill="#242A56"/>
<path d="M108.353 26.9714H110.836V23.0418L113.78 17.8834H110.964L109.62 20.6482H109.594L108.212 17.8834H105.421L108.353 23.0418V26.9714Z" fill="#242A56"/>
</svg>
