<svg width="36" height="24" viewBox="0 0 36 24" fill="none" xmlns="http://www.w3.org/2000/svg">
<path fill-rule="evenodd" clip-rule="evenodd" d="M10 3H14C15.1046 3 16 3.89543 16 5V6H20C21.1046 6 22 6.89543 22 8V19C22 20.1046 21.1046 21 20 21H4C2.89543 21 2 20.1046 2 19V8C2 6.89543 2.89543 6 4 6H8V5C8 3.89543 8.89543 3 10 3ZM4 8H8H16H20V13H13H11H4V8ZM4 19V15H11V16H13V15H20V19H4ZM14 5V6H10V5H14Z" fill="#393A56"/>
<path fill-rule="evenodd" clip-rule="evenodd" d="M28 1H24C22.8954 1 22 1.89543 22 3V4H18C16.8954 4 16 4.89543 16 6H18H20H22H30H34V11H27H25H22V13H25V14H27V13H34V17H22V19H34C35.1046 19 36 18.1046 36 17V6C36 4.89543 35.1046 4 34 4H30V3C30 1.89543 29.1046 1 28 1ZM28 4V3H24V4H28Z" fill="#393A56"/>
</svg>
