<svg width="60" height="60" viewBox="0 0 60 60" fill="none" xmlns="http://www.w3.org/2000/svg">
<path d="M6 56H54" stroke="#376FFF" stroke-width="3" stroke-linecap="round"/>
<path d="M22.6934 9L25.8752 13.2727C26.057 13.5455 26.1479 13.8182 26.057 14.1818L24.9661 18.4545L24.057 21.1818L25.8752 23.9091C26.2388 24.3636 26.057 25.0909 25.6024 25.3636L23.057 27L23.6934 28.8182L27.3297 29.7273C27.5115 29.8182 27.6934 29.9091 27.7843 30L30.9661 33.1818C31.3297 33.5455 31.4206 34.0909 31.057 34.5455L28.9661 37.7273C28.8752 37.8182 28.7843 37.9091 28.6934 38L24.6934 41L22.6934 46" stroke="#8B9BAB" stroke-width="3" stroke-miterlimit="10"/>
<path d="M45.9669 15.9999L41.1487 16.9999C41.0578 16.9999 40.9669 16.9999 40.9669 16.9999C40.7851 16.9999 40.6033 16.9999 40.5123 16.909L38.4214 15.818C38.0578 15.6362 37.876 15.2726 37.876 14.909V9.63623" stroke="#8B9BAB" stroke-width="3" stroke-miterlimit="10"/>
<path d="M43.6933 42.2726L38.966 35.7272C38.8751 35.5453 38.7842 35.3635 38.7842 35.0908V31.909C38.7842 31.8181 38.7842 31.7272 38.7842 31.6363L39.7842 27.5453V25.5453C39.7842 25.0908 40.0569 24.7272 40.5115 24.5453L43.3296 23.6363L45.2387 20.7272C45.3296 20.5453 45.6024 20.3635 45.7842 20.2726L48.5115 19.3635" stroke="#8B9BAB" stroke-width="3" stroke-miterlimit="10"/>
<circle cx="30" cy="27" r="19.5" stroke="#8B9BAB" stroke-width="3"/>
</svg>
