<svg width="60" height="60" viewBox="0 0 60 60" fill="none" xmlns="http://www.w3.org/2000/svg">
<path d="M6 56H54" stroke="#8B9BAB" stroke-width="3" stroke-linecap="round"/>
<path d="M51 27.0138C51 28.7511 47.6907 30.0473 47.2771 31.6467C46.8359 33.3014 49.042 36.0591 48.1871 37.5207C47.3322 38.9823 43.8299 38.4583 42.6441 39.6441C41.4583 40.8299 41.9823 44.3322 40.5207 45.1871C39.0591 46.042 36.3014 43.8359 34.6467 44.2771C33.0473 44.7183 31.7511 48 30.0138 48C28.2764 48 26.9803 44.6907 25.3808 44.2771C23.7262 43.8359 20.9685 46.042 19.5069 45.1871C18.0453 44.3322 18.5693 40.8299 17.3835 39.6441C16.1976 38.4583 12.6953 38.9823 11.8404 37.5207C10.958 36.0591 13.1641 33.3014 12.7229 31.6467C12.3093 30.0197 9 28.7511 9 27.0138C9 25.2764 12.3093 23.9803 12.7229 22.3808C13.1641 20.7262 10.958 17.9685 11.8129 16.5069C12.6678 15.0453 16.1701 15.5693 17.3559 14.3835C18.5417 13.1976 18.0177 9.69534 19.4793 8.84045C20.9409 7.98555 23.6986 10.1917 25.3532 9.75049C26.9803 9.30926 28.2764 6 30.0138 6C31.7511 6 33.0473 9.30926 34.6467 9.72292C36.3014 10.1641 39.0591 7.95798 40.5207 8.81287C41.9823 9.66776 41.4583 13.1701 42.6441 14.3559C43.8299 15.5417 47.3322 15.0177 48.1871 16.4793C49.042 17.9409 46.8359 20.6986 47.2771 22.3532C47.7183 23.9803 51 25.2764 51 27.0138Z" stroke="#8B9BAB" stroke-width="3"/>
<path d="M34.8004 20.4C33.6004 19.5 32.3004 19 30.9004 19C27.9004 19 23.9004 21.1 23.9004 27C23.9004 32.9 27.8004 35 30.9004 35C32.3004 35 33.6004 34.5 34.8004 33.6" stroke="#376FFF" stroke-width="3" stroke-miterlimit="10" stroke-linecap="round" stroke-linejoin="round"/>
<path d="M22 29.5H30.1" stroke="#376FFF" stroke-width="3" stroke-miterlimit="10" stroke-linecap="round" stroke-linejoin="round"/>
<path d="M22 24.5H30.1" stroke="#376FFF" stroke-width="3" stroke-miterlimit="10" stroke-linecap="round" stroke-linejoin="round"/>
</svg>
