<svg width="58" height="58" viewBox="0 0 58 58" fill="none" xmlns="http://www.w3.org/2000/svg">
<g clip-path="url(#clip0_1142_3395)">
<path d="M57.0645 29C57.0645 12.982 44.2919 0 28.5323 0C12.7726 0 0 12.982 0 29C0 43.4773 10.4321 55.4738 24.0741 57.6488V37.3828H16.8296V29H24.0741V22.6109C24.0741 15.3439 28.3316 11.3281 34.8517 11.3281C37.9724 11.3281 41.238 11.8945 41.238 11.8945V19.0312H37.6381C34.0938 19.0312 32.9904 21.2686 32.9904 23.5625V29H40.9037L39.6387 37.3828H32.9904V57.6488C46.6324 55.4738 57.0645 43.4773 57.0645 29Z" fill="#1877F2"/>
<path d="M56.5645 29C56.5645 43.0281 46.6031 54.678 33.4904 57.0565V37.8828H39.6387H40.0689L40.1331 37.4574L41.3981 29.0746L41.4848 28.5H40.9037H33.4904V23.5625C33.4904 22.4862 33.7503 21.4853 34.3662 20.7604C34.9694 20.0505 35.9774 19.5312 37.6381 19.5312H41.238H41.738V19.0312V11.8945V11.4738L41.3235 11.4019L41.238 11.8945C41.3235 11.4019 41.3234 11.4019 41.3234 11.4019L41.3232 11.4018L41.3226 11.4017L41.3205 11.4014L41.3128 11.4L41.2835 11.3951C41.2579 11.3908 41.2204 11.3846 41.1717 11.3767C41.0745 11.3609 40.9327 11.3384 40.753 11.3115C40.3938 11.2578 39.8827 11.1863 39.2734 11.1147C38.057 10.972 36.4391 10.8281 34.8517 10.8281C31.4883 10.8281 28.6542 11.866 26.6613 13.8939C24.6688 15.9213 23.5741 18.88 23.5741 22.6109V28.5H16.8296H16.3296V29V37.3828V37.8828H16.8296H23.5741V57.0565C10.4614 54.678 0.5 43.0281 0.5 29C0.5 13.2505 13.0564 0.5 28.5323 0.5C44.0081 0.5 56.5645 13.2505 56.5645 29Z" stroke="url(#paint0_linear_1142_3395)" stroke-opacity="0.7"/>
<path d="M39.6372 37.3828L40.9022 29H32.989V23.5625C32.989 21.2686 34.0924 19.0312 37.6366 19.0312H41.2366V11.8945C41.2366 11.8945 37.971 11.3281 34.8503 11.3281C28.3302 11.3281 24.0726 15.3439 24.0726 22.6109V29H16.8281V37.3828H24.0726V57.6488C25.5271 57.8811 27.015 58 28.5308 58C30.0466 58 31.5345 57.8811 32.989 57.6488V37.3828H39.6372Z" fill="white"/>
</g>
<defs>
<linearGradient id="paint0_linear_1142_3395" x1="8.66158" y1="18.7329" x2="61.6501" y2="41.1511" gradientUnits="userSpaceOnUse">
<stop stop-color="white"/>
<stop offset="1" stop-color="white" stop-opacity="0"/>
</linearGradient>
<clipPath id="clip0_1142_3395">
<rect width="57.0645" height="58" fill="white"/>
</clipPath>
</defs>
</svg>
