<svg width="60" height="60" viewBox="0 0 60 60" fill="none" xmlns="http://www.w3.org/2000/svg">
<path fill-rule="evenodd" clip-rule="evenodd" d="M13.5 6C13.5 5.17157 14.1716 4.5 15 4.5H45C45.8284 4.5 46.5 5.17157 46.5 6V8.5H52C52.4494 8.5 52.8751 8.70148 53.16 9.04902C53.4449 9.39655 53.559 9.85351 53.4709 10.2942L51.4709 20.2942C51.4128 20.5846 51.2701 20.8513 51.0607 21.0607L46.5 25.6213V26C46.5 26.3978 46.342 26.7794 46.0607 27.0607L36.0607 37.0607C35.7794 37.342 35.3978 37.5 35 37.5H34.5V45.4569L39.1523 51.0397C39.377 51.3093 39.5 51.6491 39.5 52V55C39.5 55.8284 38.8284 56.5 38 56.5H22C21.1716 56.5 20.5 55.8284 20.5 55V52C20.5 51.6491 20.623 51.3093 20.8477 51.0397L25.5 45.4569V37.5H25C24.6022 37.5 24.2207 37.342 23.9394 37.0607L13.9394 27.0607C13.658 26.7794 13.5 26.3978 13.5 26V25.6213L8.93935 21.0607C8.72995 20.8513 8.58722 20.5846 8.52914 20.2942L6.52914 10.2942C6.44101 9.85351 6.55509 9.39655 6.84 9.04902C7.12491 8.70148 7.55062 8.5 8.00001 8.5H13.5V6ZM13.5 11.5H9.82972L11.3818 19.2605L13.5 21.3787V11.5ZM46.5 21.3787V11.5H50.1703L48.6182 19.2605L46.5 21.3787ZM28.5 44.5H31.5V37.5H28.5V44.5ZM27.7026 47.5L23.5 52.5431V53.5H36.5V52.5431L32.2975 47.5H27.7026ZM34.3787 34.5H33H27H25.6213L16.5 25.3787V7.5H43.5V25.3787L34.3787 34.5Z" fill="#C1D3DE"/>
<path fill-rule="evenodd" clip-rule="evenodd" d="M30 23.7793L25.6738 26L26.5 21.2966L23 17.9656L27.8369 17.2793L30 13L32.1631 17.2793L37 17.9656L33.5 21.2966L34.3262 26L30 23.7793Z" stroke="#376FFF" stroke-width="3" stroke-linejoin="round"/>
</svg>
