<svg width="60" height="60" viewBox="0 0 60 60" fill="none" xmlns="http://www.w3.org/2000/svg">
<path d="M21.7714 23.2868C21.0607 23.7125 20.1395 23.4815 19.7138 22.7708C19.2881 22.0601 19.5191 21.1389 20.2298 20.7132L21.7714 23.2868ZM26.7517 18.5551L28.1273 19.1532C28.0025 19.4403 27.791 19.6811 27.5225 19.8419L26.7517 18.5551ZM31.7762 7.00016L30.4006 6.40201C30.5898 5.9669 30.9737 5.64696 31.4358 5.53929C31.8979 5.43162 32.3837 5.54892 32.7457 5.85558L31.7762 7.00016ZM36.4984 11.0001L37.4679 9.85548C37.9038 10.2247 38.0922 10.8096 37.9536 11.3638L36.4984 11.0001ZM34.4539 25.3638C34.253 26.1675 33.4386 26.6561 32.6349 26.4552C31.8312 26.2543 31.3425 25.4399 31.5434 24.6362L34.4539 25.3638ZM20.2298 20.7132L25.9809 17.2683L27.5225 19.8419L21.7714 23.2868L20.2298 20.7132ZM25.3761 17.9569L30.4006 6.40201L33.1518 7.59831L28.1273 19.1532L25.3761 17.9569ZM32.7457 5.85558L37.4679 9.85548L35.5289 12.1446L30.8067 8.14474L32.7457 5.85558ZM37.9536 11.3638L34.4539 25.3638L31.5434 24.6362L35.0432 10.6363L37.9536 11.3638Z" fill="#376FFF"/>
<path d="M20.7742 40.5L43.9087 40.5C44.4064 40.5 44.8283 40.134 44.8986 39.6412L47.7728 19.5001L35.7754 19.5" stroke="#376FFF" stroke-width="3" stroke-linecap="round" stroke-linejoin="round"/>
<path d="M20.7754 18.5198L13.1315 18.4591L12.7754 42.5198H20.7754V18.5198Z" stroke="#8B9BAB" stroke-width="3" stroke-linejoin="round"/>
<path d="M6 56H54" stroke="#8B9BAB" stroke-width="3" stroke-linecap="round"/>
</svg>
