<svg width="171" height="48" viewBox="0 0 171 48" fill="none" xmlns="http://www.w3.org/2000/svg">
<path fill-rule="evenodd" clip-rule="evenodd" d="M58.7657 48H67.1657L33.6 0L21.3943 17.4483L15.0857 7.35567L10.7314 13.5823L28.8 41.8418L12.7543 41.7733L17.3143 35.2046L13.3371 28.9779L4.38857 41.7391H4.35429L0 48H8.4H8.43429H40.4914L25.3371 23.7434L33.6 11.8717L58.7657 48Z" fill="white"/>
<path d="M75.0746 21.2571H80.0474C84.4634 21.2571 87.0554 18.4731 87.0554 14.4603C87.0554 10.4283 84.2906 7.62514 79.9898 7.62514H75.0746V21.2571ZM78.6074 18.0123V10.8699H80.0666C81.8522 10.8699 83.2346 12.4251 83.2346 14.4603C83.2346 16.4187 81.8714 18.0123 79.7978 18.0123H78.6074Z" fill="white"/>
<path d="M92.5664 21.2571H96.3296V7.62514H92.5664V21.2571Z" fill="white"/>
<path d="M108.955 21.4299C111.067 21.4299 113.198 20.7003 114.427 19.7787V13.4427H108.667V16.3803H110.99V17.6475C110.261 17.9739 109.665 18.0891 108.955 18.0891C106.843 18.0891 105.653 16.4187 105.653 14.4603C105.653 12.1371 107.131 10.8507 108.801 10.8507C110.222 10.8507 111.221 11.5227 111.835 12.1179L114.427 9.94834C113.045 8.29714 110.798 7.41394 108.801 7.41394C104.366 7.41394 101.832 10.5243 101.832 14.4603C101.832 18.9531 105 21.4299 108.955 21.4299Z" fill="white"/>
<path d="M120.121 21.2571H123.885V7.62514H120.121V21.2571Z" fill="white"/>
<path d="M132.555 21.2571H136.299V10.8699H139.697V7.62514H129.156V10.8699H132.555V21.2571Z" fill="white"/>
<path d="M142.437 21.2571H146.258L146.949 19.0491H151.327L152.018 21.2571H155.82L150.885 7.62514H147.391L142.437 21.2571ZM147.89 15.9963L149.119 12.0603H149.157L150.386 15.9963H147.89Z" fill="white"/>
<path d="M160.646 21.2571H169.727V18.0123H164.409V7.62514H160.646V21.2571Z" fill="white"/>
<path d="M74.0186 40.4571H77.8394L78.5306 38.2491H82.9082L83.5994 40.4571H87.401L82.4666 26.8251H78.9722L74.0186 40.4571ZM79.4714 35.1963L80.7002 31.2603H80.7386L81.9674 35.1963H79.4714Z" fill="white"/>
<path d="M98.1212 40.6299C100.233 40.6299 102.364 39.9003 103.593 38.9787V32.6427H97.8332V35.5803H100.156V36.8475C99.4268 37.1739 98.8316 37.2891 98.1212 37.2891C96.0092 37.2891 94.8188 35.6187 94.8188 33.6603C94.8188 31.3371 96.2972 30.0507 97.9676 30.0507C99.3884 30.0507 100.387 30.7227 101.001 31.3179L103.593 29.1483C102.211 27.4971 99.9644 26.6139 97.9676 26.6139C93.5324 26.6139 90.998 29.7243 90.998 33.6603C90.998 38.1531 94.166 40.6299 98.1212 40.6299Z" fill="white"/>
<path d="M109.192 40.4571H118.657V37.2123H112.724V35.2347H117.044V32.1243H112.724V30.0699H118.254V26.8251H109.192V40.4571Z" fill="white"/>
<path d="M124.076 40.4571H127.647V32.9883H127.685L132.409 40.4571H135.999V26.8251H132.409V34.5243L132.37 34.5435L127.551 26.8251H124.076V40.4571Z" fill="white"/>
<path d="M148.547 40.6491C150.967 40.6491 152.925 39.4971 154.096 38.0571L151.427 35.7531C150.698 36.6363 149.68 37.1355 148.547 37.1355C146.493 37.1355 145.264 35.5227 145.264 33.6603C145.264 31.3563 146.858 30.1275 148.547 30.1275C149.815 30.1275 150.851 30.8955 151.427 31.5483L154.096 29.2635C152.56 27.4011 150.41 26.6139 148.547 26.6139C143.997 26.6139 141.424 29.7435 141.424 33.6603C141.424 38.2107 144.515 40.6491 148.547 40.6491Z" fill="white"/>
<path d="M162.526 40.4571H166.251V34.5627L170.667 26.8251H166.443L164.427 30.9723H164.388L162.315 26.8251H158.129L162.526 34.5627V40.4571Z" fill="white"/>
</svg>
