<svg width="60" height="60" viewBox="0 0 60 60" fill="none" xmlns="http://www.w3.org/2000/svg">
<path d="M6 56H54" stroke="#8B9BAB" stroke-width="3" stroke-linecap="round"/>
<path d="M15.8003 28.9001C17.6003 28.6001 18.9003 26.9001 18.9003 25.1001C18.9003 23.5001 17.8003 22.0001 16.3003 21.5001C14.9003 21.0001 13.1003 21.5001 12.2003 22.7001C11.2003 23.9001 11.0003 25.7001 11.8003 27.1001C12.6003 28.5001 14.2003 29.2001 15.8003 28.9001Z" stroke="#8B9BAB" stroke-width="3" stroke-miterlimit="10" stroke-linecap="round" stroke-linejoin="round"/>
<path d="M17.9 29.7C17.5 29.7 17.1 29.7 16.7 29.7C15.3 29.7 13.9 29.7 12.4 29.7C11.4 29.7 10.5 30.1 9.9 31C9.5 31.6 9.5 32.2 9.5 32.9C9.5 34.4 9.5 35.9 9.5 37.4C9.5 37.9 9.5 38.4 9.5 38.9C9.6 39.7 10 40.5 10.7 40.9C11 41.1 11.3 41.2 11.5 41.2C11.5 42.1 11.5 43 11.5 43.9C11.5 44.6 11.5 45.3 11.5 46C11.5 46.7 11.6 47.5 12.1 48C12.8 48.7 13.7 48.5999 14.6 48.5999C15 48.5999 15.4 48.5999 15.8 48.5999C16.1 48.5999 16.4 48.6 16.7 48.5C17.8 48.2 18.3 47.2999 18.3 46.2999C18.3 45.6999 18.3 45.1 18.3 44.5C18.3 43.4 18.3 42.3 18.3 41.2C18.5 41.2 18.7 41.1 18.9 41C19.4 40.7 19.9 40.3 20.2 39.7C20.5 39.1 20.5 38.6 20.5 38C20.5 36.6 20.5 35.1 20.5 33.7C20.5 33.3 20.5 32.9 20.5 32.4C20.5 32.3 20.5 32.3 20.5 32.2C20.4 30.8 19.3 29.8 17.9 29.7Z" stroke="#8B9BAB" stroke-width="3" stroke-miterlimit="10" stroke-linecap="round" stroke-linejoin="round"/>
<path d="M46.7007 28.9001C48.5007 28.6001 49.8007 26.9001 49.8007 25.1001C49.8007 23.5001 48.7007 22.0001 47.2007 21.5001C45.8007 21.0001 44.0007 21.5001 43.1007 22.7001C42.1007 23.9001 41.9007 25.7001 42.7007 27.1001C43.5007 28.5001 45.1007 29.2001 46.7007 28.9001Z" stroke="#8B9BAB" stroke-width="3" stroke-miterlimit="10" stroke-linecap="round" stroke-linejoin="round"/>
<path d="M48.8004 29.7002C48.4004 29.7002 48.0004 29.7002 47.6004 29.7002C46.2004 29.7002 44.8004 29.7002 43.3004 29.7002C42.3004 29.7002 41.4004 30.1002 40.8004 31.0002C40.4004 31.6002 40.4004 32.2002 40.4004 32.9002C40.4004 34.4002 40.4004 35.9002 40.4004 37.4002C40.4004 37.9002 40.4004 38.4002 40.4004 38.9002C40.5004 39.7002 40.9004 40.5002 41.6004 40.9002C41.9004 41.1002 42.2004 41.2002 42.4004 41.2002C42.4004 42.1002 42.4004 43.0002 42.4004 43.9002C42.4004 44.6002 42.4004 45.3002 42.4004 46.0002C42.4004 46.7002 42.5004 47.5002 43.0004 48.0002C43.7004 48.7002 44.6004 48.6002 45.5004 48.6002C45.9004 48.6002 46.3004 48.6002 46.7004 48.6002C47.0004 48.6002 47.3004 48.6002 47.6004 48.5002C48.7004 48.2002 49.2004 47.3002 49.2004 46.3002C49.2004 45.7002 49.2004 45.1002 49.2004 44.5002C49.2004 43.4002 49.2004 42.3002 49.2004 41.2002C49.4004 41.2002 49.6004 41.1002 49.8004 41.0002C50.3004 40.7002 50.8004 40.3002 51.1004 39.7002C51.4004 39.1002 51.4004 38.6002 51.4004 38.0002C51.4004 36.6002 51.4004 35.1002 51.4004 33.7002C51.4004 33.3002 51.4004 32.9002 51.4004 32.4002C51.4004 32.3002 51.4004 32.3002 51.4004 32.2002C51.3004 30.8002 50.2004 29.8002 48.8004 29.7002Z" stroke="#8B9BAB" stroke-width="3" stroke-miterlimit="10" stroke-linecap="round" stroke-linejoin="round"/>
<path d="M31.1997 28.9001C32.9997 28.6001 34.2997 26.9001 34.2997 25.1001C34.2997 23.5001 33.1997 22.0001 31.6997 21.5001C30.2997 21.0001 28.4997 21.5001 27.5997 22.7001C26.5997 23.9001 26.3997 25.7001 27.1997 27.1001C27.9997 28.5001 29.6997 29.2001 31.1997 28.9001Z" stroke="#376FFF" stroke-width="3" stroke-miterlimit="10" stroke-linecap="round" stroke-linejoin="round"/>
<path d="M33.3 29.7002C32.9 29.7002 32.5 29.7002 32.1 29.7002C30.7 29.7002 29.3 29.7002 27.8 29.7002C26.8 29.7002 25.9 30.1002 25.3 31.0002C25 31.6002 25 32.3002 25 32.9002C25 34.4002 25 35.9002 25 37.4002C25 37.9002 25 38.4002 25 38.9002C25.1 39.7002 25.5 40.5002 26.2 40.9002C26.5 41.1002 26.8 41.2002 27 41.2002C27 42.1002 27 43.0002 27 43.9002C27 44.6002 27 45.3002 27 46.0002C27 46.7002 27.1 47.5002 27.6 48.0002C28.3 48.7002 29.2 48.6002 30.1 48.6002C30.5 48.6002 30.9 48.6002 31.3 48.6002C31.6 48.6002 31.9 48.6002 32.2 48.5002C33.3 48.2002 33.8 47.3002 33.8 46.3002C33.8 45.7002 33.8 45.1002 33.8 44.5002C33.8 43.4002 33.8 42.3002 33.8 41.2002C34 41.2002 34.2 41.1002 34.4 41.0002C34.9 40.7002 35.4 40.3002 35.7 39.7002C36 39.2002 36 38.6002 36 38.0002C36 36.6002 36 35.1002 36 33.7002C36 33.3002 36 32.9002 36 32.4002C36 32.3002 36 32.3002 36 32.2002C35.9 30.8002 34.8 29.8002 33.3 29.7002Z" stroke="#376FFF" stroke-width="3" stroke-miterlimit="10" stroke-linecap="round" stroke-linejoin="round"/>
<path d="M26.6996 17.1C26.6996 15 24.9996 13.3 22.8996 13.3C20.7996 13.3 19.0996 15 19.0996 17.1" stroke="#8B9BAB" stroke-width="3" stroke-miterlimit="10" stroke-linecap="round" stroke-linejoin="round"/>
<path d="M42.1 17.1C42.1 15 40.4 13.3 38.3 13.3C36.2 13.3 34.5 15 34.5 17.1" stroke="#8B9BAB" stroke-width="3" stroke-miterlimit="10" stroke-linecap="round" stroke-linejoin="round"/>
<path d="M34.3998 9.3C34.3998 7.2 32.6998 5.5 30.5998 5.5C28.4998 5.5 26.7998 7.2 26.7998 9.3" stroke="#8B9BAB" stroke-width="3" stroke-miterlimit="10" stroke-linecap="round" stroke-linejoin="round"/>
</svg>
