<svg width="64" height="59" viewBox="0 0 64 59" fill="none" xmlns="http://www.w3.org/2000/svg">
<path d="M21.7795 7.36599C22.3981 5.74214 23.2487 4.24718 24.5117 3.03574C29.5636 -1.88734 37.9148 -0.650122 41.3429 5.53594C43.9204 10.227 46.6526 14.815 49.3075 19.4546C53.7408 27.1614 58.2257 34.8682 62.6075 42.6008C66.2934 49.0704 62.2982 57.2411 54.978 58.3495C50.4931 59.0196 46.2918 56.9576 43.972 52.9367C40.0799 46.1578 36.1621 39.3789 32.27 32.6257C32.1927 32.4711 32.0896 32.3422 31.9865 32.2133C31.5741 31.8783 31.3937 31.3885 31.1359 30.9504C29.409 27.9089 27.6305 24.8932 25.9035 21.8775C24.7952 19.9185 23.6353 17.9854 22.527 16.0265C21.5217 14.2738 21.0578 12.3664 21.1093 10.3559C21.1867 9.32491 21.3155 8.29389 21.7795 7.36599Z" fill="#3C8BD9"/>
<path d="M21.7807 7.36597C21.5487 8.29388 21.3425 9.22179 21.291 10.2012C21.2137 12.3664 21.7549 14.3768 22.8375 16.2584C25.6728 21.13 28.5081 26.0273 31.3176 30.9246C31.5753 31.3627 31.7815 31.8009 32.0393 32.2133C30.4928 34.894 28.9462 37.5488 27.3739 40.2294C25.2088 43.9669 23.0437 47.73 20.8528 51.4675C20.7497 51.4675 20.7239 51.4159 20.6981 51.3386C20.6724 51.1324 20.7497 50.952 20.8012 50.7458C21.858 46.8795 20.9817 43.4513 18.3268 40.513C16.703 38.7345 14.641 37.7292 12.2696 37.3942C9.1766 36.956 6.44442 37.755 3.99577 39.6882C3.55759 40.0232 3.27406 40.513 2.75855 40.7707C2.65545 40.7707 2.6039 40.7192 2.57812 40.6418C3.81534 38.5025 5.02678 36.3632 6.26399 34.2238C11.3675 25.3571 16.471 16.4904 21.6003 7.64949C21.6518 7.54639 21.7292 7.46907 21.7807 7.36597Z" fill="#FABC04"/>
<path d="M2.68006 40.7192C3.16979 40.281 3.63374 39.8171 4.14925 39.4047C10.4126 34.4558 19.8206 38.0386 21.1867 45.8743C21.5218 47.7559 21.3414 49.5601 20.7743 51.3644C20.7485 51.519 20.7227 51.6479 20.6712 51.8026C20.4392 52.215 20.233 52.6532 19.9753 53.0656C17.6813 56.8545 14.3047 58.7361 9.87136 58.4526C4.79363 58.0917 0.798463 54.277 0.10253 49.225C-0.232548 46.7764 0.257182 44.4824 1.52017 42.3688C1.77792 41.9049 2.08723 41.4925 2.37075 41.0285C2.49963 40.9254 2.44808 40.7192 2.68006 40.7192Z" fill="#34A852"/>
<path d="M2.67816 40.7192C2.57506 40.8223 2.57506 41.0027 2.39463 41.0285C2.36886 40.8481 2.47196 40.745 2.57506 40.6161L2.67816 40.7192Z" fill="#FABC04"/>
<path d="M20.6716 51.8026C20.5685 51.6221 20.6716 51.4933 20.7747 51.3644C20.8005 51.3902 20.852 51.4417 20.8778 51.4675L20.6716 51.8026Z" fill="#E1C025"/>
</svg>
