<svg width="60" height="60" viewBox="0 0 60 60" fill="none" xmlns="http://www.w3.org/2000/svg">
<path d="M29.9999 5.00002V7.00002M19.4999 7.81349L20.4999 9.54554M11.8134 15.5L13.5455 16.5M9 26H11M11.8134 36.5L13.5455 35.5M40.5 7.81349L39.5 9.54555M48.1865 15.5L46.4544 16.5M50.9999 26H48.9999M48.1865 36.5L46.4544 35.5" stroke="#C1D3DE" stroke-width="3" stroke-linecap="round" stroke-linejoin="round"/>
<path fill-rule="evenodd" clip-rule="evenodd" d="M24.9393 23.9394C25.5251 23.3536 26.4749 23.3536 27.0607 23.9394L30 26.8787L32.9393 23.9394C33.5251 23.3536 34.4749 23.3536 35.0607 23.9394C35.6464 24.5251 35.6464 25.4749 35.0607 26.0607L31.5 29.6213V35C31.5 35.8284 30.8284 36.5 30 36.5C29.1716 36.5 28.5 35.8284 28.5 35V29.6213L24.9393 26.0607C24.3536 25.4749 24.3536 24.5251 24.9393 23.9394ZM35 48.5C35.8284 48.5 36.5 47.8284 36.5 47C36.5 46.1715 35.8284 45.5 35 45.5H25C24.1716 45.5 23.5 46.1715 23.5 47C23.5 47.8284 24.1716 48.5 25 48.5H35Z" fill="#C1D3DE"/>
<path d="M39.2909 15.4816C34.0321 10.8655 25.7549 10.6813 20.2886 15.8808C18.0793 17.979 16.6168 20.7323 16.1708 23.6391C15.6003 27.2727 16.4716 30.8857 18.5979 33.8334C24.4376 41.8783 23.6908 48.2754 23.7738 48.7462C23.7738 50.4248 24.4169 52.001 25.5889 53.1781C26.761 54.3551 28.3273 54.9999 29.9972 54.9999C33.4305 54.9999 36.2207 52.2467 36.2207 48.8588C36.2933 48.4187 35.588 41.4075 41.1683 34.1507C43.025 31.7352 44 28.8591 44 25.8295C44 21.8787 42.2886 18.1121 39.2909 15.4816Z" stroke="#376FFF" stroke-width="3"/>
</svg>
