<svg width="61" height="61" viewBox="0 0 61 61" fill="none" xmlns="http://www.w3.org/2000/svg">
<path d="M11 8C11 5.79086 12.7909 4 15 4H33C35.2091 4 37 5.79086 37 8V14H11V8Z" stroke="#376FFF" stroke-width="3"/>
<path fill-rule="evenodd" clip-rule="evenodd" d="M8 12.5C4.96243 12.5 2.5 14.9624 2.5 18V40C2.5 43.0376 4.96244 45.5 8 45.5H25.6415C25.3591 44.5347 25.1653 43.5315 25.0694 42.5H8C6.61929 42.5 5.5 41.3807 5.5 40V26.5H16.5V29C16.5 30.933 18.067 32.5 20 32.5H27.4421C28.5103 30.7997 29.8895 29.3145 31.5 28.1243V26.5H34.2271C36.2839 25.5376 38.5792 25 41 25C42.5624 25 44.0725 25.224 45.5 25.6415V18C45.5 14.9624 43.0376 12.5 40 12.5H8ZM5.5 18C5.5 16.6193 6.61929 15.5 8 15.5H40C41.3807 15.5 42.5 16.6193 42.5 18V23.5H31.5H30H18H16.5H5.5V18ZM19.5 26.5H28.5V29C28.5 29.2761 28.2761 29.5 28 29.5H20C19.7239 29.5 19.5 29.2761 19.5 29V26.5Z" fill="#C1D3DE"/>
<path fill-rule="evenodd" clip-rule="evenodd" d="M50.5 28.1243C49.5717 27.4382 48.5666 26.8502 47.5 26.3754V45C47.5 46.3807 46.3807 47.5 45 47.5H26.3755C26.8503 48.5666 27.4383 49.5717 28.1244 50.5H45C48.0375 50.5 50.5 48.0376 50.5 45V28.1243Z" fill="#C1D3DE"/>
<path fill-rule="evenodd" clip-rule="evenodd" d="M41 26.5C32.9919 26.5 26.5 32.9919 26.5 41C26.5 49.0081 32.9919 55.5 41 55.5C49.0081 55.5 55.5 49.0081 55.5 41C55.5 32.9919 49.0081 26.5 41 26.5ZM23.5 41C23.5 31.335 31.335 23.5 41 23.5C50.665 23.5 58.5 31.335 58.5 41C58.5 45.2925 56.9546 49.224 54.3898 52.2684L60.0607 57.9393C60.6464 58.5251 60.6464 59.4749 60.0607 60.0607C59.4749 60.6464 58.5251 60.6464 57.9393 60.0607L52.2684 54.3898C49.224 56.9546 45.2925 58.5 41 58.5C31.335 58.5 23.5 50.665 23.5 41ZM39.5 31C39.5 30.1716 40.1716 29.5 41 29.5C47.3513 29.5 52.5 34.6487 52.5 41C52.5 41.8284 51.8284 42.5 51 42.5C50.1716 42.5 49.5 41.8284 49.5 41C49.5 36.3056 45.6944 32.5 41 32.5C40.1716 32.5 39.5 31.8284 39.5 31Z" fill="#376FFF"/>
</svg>
