<svg width="61" height="61" viewBox="0 0 61 61" fill="none" xmlns="http://www.w3.org/2000/svg">
<path fill-rule="evenodd" clip-rule="evenodd" d="M29 2.5C27.067 2.5 25.5 4.067 25.5 6V18C25.5 19.933 27.067 21.5 29 21.5H41C42.933 21.5 44.5 19.933 44.5 18V6C44.5 4.067 42.933 2.5 41 2.5H29ZM28.5 6C28.5 5.72386 28.7239 5.5 29 5.5H41C41.2761 5.5 41.5 5.72386 41.5 6V18C41.5 18.2761 41.2761 18.5 41 18.5H29C28.7239 18.5 28.5 18.2761 28.5 18V6ZM6 25.5C4.067 25.5 2.5 27.067 2.5 29V41C2.5 42.933 4.067 44.5 6 44.5H18C19.933 44.5 21.5 42.933 21.5 41V29C21.5 27.067 19.933 25.5 18 25.5H6ZM5.5 29C5.5 28.7239 5.72386 28.5 6 28.5H18C18.2761 28.5 18.5 28.7239 18.5 29V41C18.5 41.2761 18.2761 41.5 18 41.5H6C5.72386 41.5 5.5 41.2761 5.5 41V29ZM25.5 29C25.5 27.067 27.067 25.5 29 25.5H37.0158C34.7907 26.0703 32.7525 27.1071 31.0116 28.5H29C28.7239 28.5 28.5 28.7239 28.5 29V31.0116C27.1071 32.7525 26.0703 34.7907 25.5 37.0158V29Z" fill="#C1D3DE"/>
<path d="M4 6C4 4.89543 4.89543 4 6 4H18C19.1046 4 20 4.89543 20 6V18C20 19.1046 19.1046 20 18 20H6C4.89543 20 4 19.1046 4 18V6Z" stroke="#376FFF" stroke-width="3"/>
<path fill-rule="evenodd" clip-rule="evenodd" d="M50.421 28.0663C47.7782 26.138 44.522 25 41 25C38.5792 25 36.2839 25.5376 34.2271 26.5H44.9999C46.3806 26.5 47.4999 27.6193 47.4999 29V45C47.4999 46.3807 46.3806 47.5 44.9999 47.5H28.9999C27.6192 47.5 26.4999 46.3807 26.4999 45V34.2273C25.5376 36.2841 25 38.5793 25 41C25 44.5221 26.138 47.7783 28.0664 50.4211C28.3698 50.473 28.6817 50.5 28.9999 50.5H44.9999C48.0375 50.5 50.4999 48.0376 50.4999 45V29C50.4999 28.6817 50.4729 28.3698 50.421 28.0663Z" fill="#C1D3DE"/>
<path fill-rule="evenodd" clip-rule="evenodd" d="M41 26.5C32.9919 26.5 26.5 32.9919 26.5 41C26.5 49.0081 32.9919 55.5 41 55.5C49.0081 55.5 55.5 49.0081 55.5 41C55.5 32.9919 49.0081 26.5 41 26.5ZM23.5 41C23.5 31.335 31.335 23.5 41 23.5C50.665 23.5 58.5 31.335 58.5 41C58.5 45.2925 56.9546 49.224 54.3898 52.2684L60.0607 57.9393C60.6464 58.5251 60.6464 59.4749 60.0607 60.0607C59.4749 60.6464 58.5251 60.6464 57.9393 60.0607L52.2684 54.3898C49.224 56.9546 45.2925 58.5 41 58.5C31.335 58.5 23.5 50.665 23.5 41ZM39.5 31C39.5 30.1716 40.1716 29.5 41 29.5C47.3513 29.5 52.5 34.6487 52.5 41C52.5 41.8284 51.8284 42.5 51 42.5C50.1716 42.5 49.5 41.8284 49.5 41C49.5 36.3056 45.6944 32.5 41 32.5C40.1716 32.5 39.5 31.8284 39.5 31Z" fill="#376FFF"/>
</svg>
