<svg width="60" height="60" viewBox="0 0 60 60" fill="none" xmlns="http://www.w3.org/2000/svg">
<path d="M19.0325 16.8632C18.2044 16.8859 17.5147 16.2329 17.4921 15.4048C17.4695 14.5767 18.1225 13.887 18.9506 13.8644L19.0325 16.8632ZM26.8149 15.1501L26.7739 13.6506C27.1665 13.6399 27.5477 13.7836 27.8355 14.0509L26.8149 15.1501ZM31.0207 17.0085C31.6278 17.5722 31.6629 18.5213 31.0992 19.1284C30.5355 19.7354 29.5864 19.7706 28.9793 19.2069L31.0207 17.0085ZM18.9506 13.8644L26.7739 13.6506L26.8558 16.6495L19.0325 16.8632L18.9506 13.8644ZM27.8355 14.0509C29.0045 15.1363 30.0447 16.1022 31.0207 17.0085L28.9793 19.2069C28.0034 18.3006 26.9632 17.3347 25.7942 16.2492L27.8355 14.0509Z" fill="#C1D3DE"/>
<path d="M39.0979 11.3405L45.9999 8.05502L56.4912 29.7109L49.2408 33.0919L39.0979 11.3405Z" stroke="#376FFF" stroke-width="3" stroke-linejoin="round"/>
<path d="M33.3504 25.3626C32.7015 24.8477 31.758 24.9563 31.243 25.6052C30.728 26.2541 30.8366 27.1976 31.4855 27.7126L33.3504 25.3626ZM41.9948 36.0526C42.6437 36.5675 43.5872 36.459 44.1022 35.81C44.6172 35.1611 44.5086 34.2176 43.8597 33.7026L41.9948 36.0526ZM31.4855 27.7126L41.9948 36.0526L43.8597 33.7026L33.3504 25.3626L31.4855 27.7126Z" fill="#C1D3DE"/>
<path d="M40.9588 16.8633C41.7869 16.8859 42.4766 16.233 42.4992 15.4048C42.5218 14.5767 41.8688 13.8871 41.0407 13.8644L40.9588 16.8633ZM33.1764 15.1501L33.2174 13.6507C32.8248 13.64 32.4436 13.7837 32.1558 14.0509L33.1764 15.1501ZM21.2418 26.2322L20.2211 25.1331C19.9006 25.4307 19.7259 25.8533 19.7429 26.2904C19.7598 26.7274 19.9667 27.1353 20.3093 27.4072L21.2418 26.2322ZM25.6206 29.7072L24.6882 30.8822C25.1332 31.2354 25.7396 31.3068 26.2545 31.0667L25.6206 29.7072ZM33.0518 27.8971C33.8027 27.547 34.1275 26.6545 33.7774 25.9037C33.4273 25.1529 32.5348 24.828 31.784 25.1781L33.0518 27.8971ZM42.0038 33.6955C41.3509 34.2055 41.2351 35.1481 41.7451 35.801C42.2551 36.4538 43.1977 36.5697 43.8506 36.0597L42.0038 33.6955ZM49.1076 31.9532C49.7605 31.4432 49.8763 30.5006 49.3664 29.8477C48.8564 29.1949 47.9137 29.079 47.2609 29.589L49.1076 31.9532ZM41.0407 13.8644L33.2174 13.6507L33.1355 16.6496L40.9588 16.8633L41.0407 13.8644ZM32.1558 14.0509L20.2211 25.1331L22.2624 27.3314L34.1971 16.2493L32.1558 14.0509ZM20.3093 27.4072L24.6882 30.8822L26.5531 28.5323L22.1742 25.0573L20.3093 27.4072ZM26.2545 31.0667L33.0518 27.8971L31.784 25.1781L24.9867 28.3478L26.2545 31.0667ZM43.8506 36.0597L49.1076 31.9532L47.2609 29.589L42.0038 33.6955L43.8506 36.0597Z" fill="#376FFF"/>
<path d="M49.1076 31.9533C49.7605 31.4433 49.8763 30.5006 49.3664 29.8478C48.8564 29.1949 47.9137 29.0791 47.2609 29.589L49.1076 31.9533ZM12.906 30.3045C12.2457 29.8042 11.3048 29.9338 10.8045 30.5941C10.3041 31.2543 10.4338 32.1952 11.094 32.6955L12.906 30.3045ZM35.9562 40.3229L35.0329 39.1408L35.9562 40.3229ZM36.8796 41.505L49.1076 31.9533L47.2609 29.589L35.0329 39.1408L36.8796 41.505ZM24.6666 39.2167L12.906 30.3045L11.094 32.6955L22.8547 41.6078L24.6666 39.2167ZM35.0329 39.1408C31.9946 41.5141 27.7394 41.5453 24.6666 39.2167L22.8547 41.6078C27.012 44.7581 32.769 44.716 36.8796 41.505L35.0329 39.1408Z" fill="#376FFF"/>
<path d="M20.8933 11.3405L13.9913 8.05497L3.49999 29.7109L10.7505 33.0918L20.8933 11.3405Z" stroke="#C1D3DE" stroke-width="3" stroke-linejoin="round"/>
<path d="M6 56H54" stroke="#C1D3DE" stroke-width="3" stroke-linecap="round"/>
</svg>
